# Blender v2.79 (sub 0) OBJ File: 'new_block.blend'
# www.blender.org
mtllib end_well.mtl
o CrystalModel_Cube.003
v 0.200000 0.200000 0.200000
v 0.200000 0.200000 0.800000
v 0.800000 0.200000 0.800000
v 0.800000 0.200000 0.200000
v 0.500000 -0.300000 0.500000
v 0.800000 0.799999 0.200000
v 0.800000 0.799999 0.800000
v 0.200000 0.799999 0.800000
v 0.200000 0.799999 0.200000
v 0.500000 1.299999 0.500000
v 0.800000 0.200000 0.200000
v 0.800000 0.200000 0.800000
v 0.200000 0.200000 0.800000
v 0.200000 0.200000 0.200000
v 0.800000 0.800000 0.200000
v 0.800000 0.800000 0.800000
v 0.200000 0.800000 0.800000
v 0.200000 0.800000 0.200000
vt 0.666565 0.954113
vt 0.879889 0.740789
vt 0.879889 0.954113
vt 0.665846 0.349434
vt 0.471109 0.523613
vt 0.471109 0.262345
vt 0.879889 0.262345
vt 0.773227 0.500849
vt 0.666565 0.262345
vt 0.257067 0.687952
vt 0.451804 0.513774
vt 0.451804 0.775041
vt 0.666565 0.261627
vt 0.666565 0.000359
vt 0.861302 0.087448
vt 0.238480 0.775760
vt 0.451804 0.989084
vt 0.238480 0.989084
vt 0.195096 0.558198
vt 0.000359 0.732376
vt 0.000359 0.471109
vt 0.471109 0.174538
vt 0.665846 0.000359
vt 0.665846 0.261627
vt 0.666565 0.740070
vt 0.773227 0.501567
vt 0.879889 0.740070
vt 0.471109 0.524331
vt 0.665846 0.698509
vt 0.471109 0.785598
vt 0.000359 0.733095
vt 0.213683 0.946419
vt 0.000359 0.946419
vt 0.452522 0.786317
vt 0.665846 0.999641
vt 0.452522 0.999641
vt 0.000359 0.470390
vt 0.256348 0.257067
vt 0.256348 0.470390
vt 0.000359 0.000359
vt 0.213683 0.256348
vt 0.000359 0.256348
vt 0.257067 0.257067
vt 0.470390 0.513055
vt 0.257067 0.513055
vt 0.470390 0.000359
vt 0.214402 0.213683
vt 0.214402 0.000359
vt 0.666565 0.740789
vt 0.451804 0.775760
vt 0.213683 0.733095
vt 0.665846 0.786317
vt 0.000359 0.257067
vt 0.213683 0.000359
vt 0.470390 0.257067
vt 0.470390 0.213683
vn 0.0000 1.0000 0.0000
vn -0.8575 -0.5145 0.0000
vn 0.0000 -0.5145 0.8575
vn 0.8575 -0.5145 -0.0000
vn -0.0000 -0.5145 -0.8575
vn -0.0000 -1.0000 0.0000
vn 0.8575 0.5145 0.0000
vn -0.0000 0.5145 0.8575
vn -0.8575 0.5145 -0.0000
vn 0.0000 0.5145 -0.8575
vn 1.0000 -0.0000 0.0000
vn 0.0000 -0.0000 1.0000
vn -1.0000 -0.0000 -0.0000
vn 0.0000 0.0000 -1.0000
usemtl crystal
f 2/1/1 4/2/1 1/3/1
f 1/4/2 5/5/2 2/6/2
f 2/7/3 5/8/3 3/9/3
f 3/10/4 5/11/4 4/12/4
f 5/13/5 1/14/5 4/15/5
f 7/16/6 9/17/6 6/18/6
f 6/19/7 10/20/7 7/21/7
f 7/22/8 10/23/8 8/24/8
f 8/25/9 10/26/9 9/27/9
f 10/28/10 6/29/10 9/30/10
f 12/31/6 14/32/6 11/33/6
f 18/34/1 16/35/1 15/36/1
f 15/37/11 12/38/11 11/39/11
f 16/40/12 13/41/12 12/42/12
f 17/43/13 14/44/13 13/45/13
f 11/46/14 18/47/14 15/48/14
f 2/1/1 3/49/1 4/2/1
f 7/16/6 8/50/6 9/17/6
f 12/31/6 13/51/6 14/32/6
f 18/34/1 17/52/1 16/35/1
f 15/37/11 16/53/11 12/38/11
f 16/40/12 17/54/12 13/41/12
f 17/43/13 18/55/13 14/44/13
f 11/46/14 14/56/14 18/47/14
